<?xml version="1.0" encoding="utf-8"?><svg xmlns="http://www.w3.org/2000/svg" xmlns:xlink="http://www.w3.org/1999/xlink"><symbol viewBox="0 0 284.929 284.929" id="chevron-up" xmlns="http://www.w3.org/2000/svg"><path d="M282.082 195.285L149.028 62.24c-1.901-1.903-4.088-2.856-6.562-2.856s-4.665.953-6.567 2.856L2.856 195.285C.95 197.191 0 199.378 0 201.853c0 2.474.953 4.664 2.856 6.566l14.272 14.271c1.903 1.903 4.093 2.854 6.567 2.854s4.664-.951 6.567-2.854l112.204-112.202 112.208 112.209c1.902 1.903 4.093 2.848 6.563 2.848 2.478 0 4.668-.951 6.57-2.848l14.274-14.277c1.902-1.902 2.847-4.093 2.847-6.566.001-2.476-.944-4.666-2.846-6.569z"/></symbol><symbol viewBox="0 0 284.929 284.929" id="chevron-up-scroll" xmlns="http://www.w3.org/2000/svg"><path d="M17.128 167.872c1.903 1.902 4.093 2.854 6.567 2.854s4.664-.952 6.567-2.854L142.466 55.666l112.208 112.206c1.902 1.902 4.093 2.854 6.563 2.854 2.478 0 4.668-.952 6.57-2.854l14.274-14.277c1.902-1.902 2.847-4.093 2.847-6.563 0-2.475-.951-4.665-2.847-6.567L149.028 7.419c-1.901-1.906-4.088-2.853-6.562-2.853s-4.665.95-6.567 2.853L2.856 140.464C.95 142.367 0 144.554 0 147.034c0 2.468.953 4.658 2.856 6.561l14.272 14.277z"/><path d="M149.028 117.055c-1.901-1.906-4.088-2.856-6.562-2.856s-4.665.953-6.567 2.856L2.856 250.1C.95 252.003 0 254.192 0 256.67c0 2.472.953 4.661 2.856 6.564l14.272 14.276c1.903 1.903 4.093 2.848 6.567 2.848s4.664-.951 6.567-2.848l112.204-112.209L254.674 277.51c1.902 1.903 4.093 2.852 6.563 2.852 2.478 0 4.668-.948 6.57-2.852l14.274-14.276c1.902-1.903 2.847-4.093 2.847-6.564 0-2.478-.951-4.667-2.847-6.57L149.028 117.055z"/></symbol><symbol viewBox="0 0 47.971 47.971" id="close" xmlns="http://www.w3.org/2000/svg"><path d="M28.228 23.986L47.092 5.122a2.998 2.998 0 0 0 0-4.242 2.998 2.998 0 0 0-4.242 0L23.986 19.744 5.121.88a2.998 2.998 0 0 0-4.242 0 2.998 2.998 0 0 0 0 4.242l18.865 18.864L.879 42.85a2.998 2.998 0 1 0 4.242 4.241l18.865-18.864L42.85 47.091c.586.586 1.354.879 2.121.879s1.535-.293 2.121-.879a2.998 2.998 0 0 0 0-4.242L28.228 23.986z"/></symbol><symbol viewBox="0 0 284.929 284.929" id="down" xmlns="http://www.w3.org/2000/svg"><path d="M282.082 76.511l-14.274-14.273c-1.902-1.906-4.093-2.856-6.57-2.856-2.471 0-4.661.95-6.563 2.856L142.466 174.441 30.262 62.241c-1.903-1.906-4.093-2.856-6.567-2.856-2.475 0-4.665.95-6.567 2.856L2.856 76.515C.95 78.417 0 80.607 0 83.082c0 2.473.953 4.663 2.856 6.565l133.043 133.046c1.902 1.903 4.093 2.854 6.567 2.854s4.661-.951 6.562-2.854L282.082 89.647c1.902-1.903 2.847-4.093 2.847-6.565 0-2.475-.945-4.665-2.847-6.571z"/></symbol><symbol viewBox="0 0 469.331 469.331" id="edit" xmlns="http://www.w3.org/2000/svg"><path d="M438.931 30.403c-40.4-40.5-106.1-40.5-146.5 0l-268.6 268.5c-2.1 2.1-3.4 4.8-3.8 7.7l-19.9 147.4c-.6 4.2.9 8.4 3.8 11.3 2.5 2.5 6 4 9.5 4 .6 0 1.2 0 1.8-.1l88.8-12c7.4-1 12.6-7.8 11.6-15.2-1-7.4-7.8-12.6-15.2-11.6l-71.2 9.6 13.9-102.8 108.2 108.2c2.5 2.5 6 4 9.5 4s7-1.4 9.5-4l268.6-268.5c19.6-19.6 30.4-45.6 30.4-73.3s-10.8-53.7-30.4-73.2zm-141.3 33l45.1 45.1-245.1 245.1-45.1-45.1 245.1-245.1zm-136.7 353.4l-44.1-44.1 245.1-245.1 44.1 44.1-245.1 245.1zm263.9-264.4l-107.9-107.9c13.7-11.3 30.8-17.5 48.8-17.5 20.5 0 39.7 8 54.2 22.4s22.4 33.7 22.4 54.2c0 18.1-6.2 35.1-17.5 48.8z"/></symbol><symbol viewBox="0 0 485.213 485.213" id="magnifier" xmlns="http://www.w3.org/2000/svg"><path d="M471.882 407.567L360.567 296.243a214.267 214.267 0 0 1-64.331 64.321L407.56 471.888c17.772 17.768 46.587 17.768 64.321 0 17.773-17.739 17.773-46.554.001-64.321zM363.909 181.955C363.909 81.473 282.44 0 181.956 0 81.474 0 .001 81.473.001 181.955s81.473 181.951 181.955 181.951c100.484 0 181.953-81.469 181.953-181.951zM181.956 318.416c-75.252 0-136.465-61.208-136.465-136.46 0-75.252 61.213-136.465 136.465-136.465 75.25 0 136.468 61.213 136.468 136.465 0 75.252-61.218 136.46-136.468 136.46z"/><path d="M75.817 181.955h30.322c0-41.803 34.014-75.814 75.816-75.814V75.816c-58.517 0-106.138 47.621-106.138 106.139z"/></symbol><symbol viewBox="0 0 473.806 473.806" id="phone-call" xmlns="http://www.w3.org/2000/svg"><path d="M374.456 293.506c-9.7-10.1-21.4-15.5-33.8-15.5-12.3 0-24.1 5.3-34.2 15.4l-31.6 31.5c-2.6-1.4-5.2-2.7-7.7-4-3.6-1.8-7-3.5-9.9-5.3-29.6-18.8-56.5-43.3-82.3-75-12.5-15.8-20.9-29.1-27-42.6 8.2-7.5 15.8-15.3 23.2-22.8 2.8-2.8 5.6-5.7 8.4-8.5 21-21 21-48.2 0-69.2l-27.3-27.3c-3.1-3.1-6.3-6.3-9.3-9.5-6-6.2-12.3-12.6-18.8-18.6-9.7-9.6-21.3-14.7-33.5-14.7s-24 5.1-34 14.7l-.2.2-34 34.3c-12.8 12.8-20.1 28.4-21.7 46.5-2.4 29.2 6.2 56.4 12.8 74.2 16.2 43.7 40.4 84.2 76.5 127.6 43.8 52.3 96.5 93.6 156.7 122.7 23 10.9 53.7 23.8 88 26 2.1.1 4.3.2 6.3.2 23.1 0 42.5-8.3 57.7-24.8.1-.2.3-.3.4-.5 5.2-6.3 11.2-12 17.5-18.1 4.3-4.1 8.7-8.4 13-12.9 9.9-10.3 15.1-22.3 15.1-34.6 0-12.4-5.3-24.3-15.4-34.3l-54.9-55.1zm35.8 105.3c-.1 0-.1.1 0 0-3.9 4.2-7.9 8-12.2 12.2-6.5 6.2-13.1 12.7-19.3 20-10.1 10.8-22 15.9-37.6 15.9-1.5 0-3.1 0-4.6-.1-29.7-1.9-57.3-13.5-78-23.4-56.6-27.4-106.3-66.3-147.6-115.6-34.1-41.1-56.9-79.1-72-119.9-9.3-24.9-12.7-44.3-11.2-62.6 1-11.7 5.5-21.4 13.8-29.7l34.1-34.1c4.9-4.6 10.1-7.1 15.2-7.1 6.3 0 11.4 3.8 14.6 7l.3.3c6.1 5.7 11.9 11.6 18 17.9 3.1 3.2 6.3 6.4 9.5 9.7l27.3 27.3c10.6 10.6 10.6 20.4 0 31-2.9 2.9-5.7 5.8-8.6 8.6-8.4 8.6-16.4 16.6-25.1 24.4-.2.2-.4.3-.5.5-8.6 8.6-7 17-5.2 22.7l.3.9c7.1 17.2 17.1 33.4 32.3 52.7l.1.1c27.6 34 56.7 60.5 88.8 80.8 4.1 2.6 8.3 4.7 12.3 6.7 3.6 1.8 7 3.5 9.9 5.3.4.2.8.5 1.2.7 3.4 1.7 6.6 2.5 9.9 2.5 8.3 0 13.5-5.2 15.2-6.9l34.2-34.2c3.4-3.4 8.8-7.5 15.1-7.5 6.2 0 11.3 3.9 14.4 7.3l.2.2 55.1 55.1c10.3 10.2 10.3 20.7.1 31.3zm-154.2-286.1c26.2 4.4 50 16.8 69 35.8s31.3 42.8 35.8 69c1.1 6.6 6.8 11.2 13.3 11.2.8 0 1.5-.1 2.3-.2 7.4-1.2 12.3-8.2 11.1-15.6-5.4-31.7-20.4-60.6-43.3-83.5s-51.8-37.9-83.5-43.3c-7.4-1.2-14.3 3.7-15.6 11s3.5 14.4 10.9 15.6zm217.2 96.3c-8.9-52.2-33.5-99.7-71.3-137.5s-85.3-62.4-137.5-71.3c-7.3-1.3-14.2 3.7-15.5 11-1.2 7.4 3.7 14.3 11.1 15.6 46.6 7.9 89.1 30 122.9 63.7 33.8 33.8 55.8 76.3 63.7 122.9 1.1 6.6 6.8 11.2 13.3 11.2.8 0 1.5-.1 2.3-.2 7.3-1.1 12.3-8.1 11-15.4z"/></symbol><symbol viewBox="0 0 510.127 510.127" id="ruble-currency-sign" xmlns="http://www.w3.org/2000/svg"><path d="M34.786 428.963h81.158v69.572c0 3.385 1.083 6.156 3.262 8.322 2.173 2.18 4.951 3.27 8.335 3.27h60.502c3.14 0 5.857-1.09 8.152-3.27 2.295-2.166 3.439-4.938 3.439-8.322v-69.572h182.964c3.377 0 6.156-1.076 8.334-3.256 2.18-2.178 3.262-4.951 3.262-8.336v-46.377c0-3.365-1.082-6.156-3.262-8.322-2.172-2.18-4.957-3.27-8.334-3.27h-182.97v-42.754h123.184c48.305 0 87.73-14.719 118.293-44.199 30.551-29.449 45.834-67.49 45.834-114.125 0-46.604-15.283-84.646-45.834-114.125C410.548 14.749 371.116 0 322.812 0H127.535c-3.385 0-6.157 1.089-8.335 3.256-2.173 2.179-3.262 4.969-3.262 8.335v227.896H34.786c-3.384 0-6.157 1.145-8.335 3.439-2.172 2.295-3.262 5.012-3.262 8.151v53.978c0 3.385 1.083 6.158 3.262 8.336 2.179 2.18 4.945 3.256 8.335 3.256h81.158v42.754H34.786c-3.384 0-6.157 1.09-8.335 3.27-2.172 2.166-3.262 4.951-3.262 8.322v46.377c0 3.385 1.083 6.158 3.262 8.336 2.178 2.181 4.95 3.257 8.335 3.257zM199.628 77.179h115.938c25.6 0 46.248 7.485 61.953 22.46 15.697 14.976 23.549 34.547 23.549 58.691 0 24.156-7.852 43.733-23.549 58.691-15.705 14.988-36.354 22.473-61.953 22.473H199.628V77.179z"/></symbol><symbol viewBox="0 0 480.3 480.3" id="settings" xmlns="http://www.w3.org/2000/svg"><path d="M254.15 234.1V13.5c0-7.5-6-13.5-13.5-13.5s-13.5 6-13.5 13.5v220.6c-31.3 6.3-55 34-55 67.2s23.7 60.9 55 67.2v98.2c0 7.5 6 13.5 13.5 13.5s13.5-6 13.5-13.5v-98.2c31.3-6.3 55-34 55-67.2 0-33.1-23.6-60.9-55-67.2zm-13.5 108.7c-22.9 0-41.5-18.6-41.5-41.5s18.6-41.5 41.5-41.5 41.5 18.6 41.5 41.5-18.6 41.5-41.5 41.5zM88.85 120.9V13.5c0-7.5-6-13.5-13.5-13.5s-13.5 6-13.5 13.5v107.4c-31.3 6.3-55 34-55 67.2s23.7 60.9 55 67.2v211.4c0 7.5 6 13.5 13.5 13.5s13.5-6 13.5-13.5V255.2c31.3-6.3 55-34 55-67.2s-23.7-60.8-55-67.1zm-13.5 108.7c-22.9 0-41.5-18.6-41.5-41.5s18.6-41.5 41.5-41.5 41.5 18.6 41.5 41.5-18.7 41.5-41.5 41.5zm343.1-108.7V13.5c0-7.5-6-13.5-13.5-13.5s-13.5 6-13.5 13.5v107.4c-31.3 6.3-55 34-55 67.2s23.7 60.9 55 67.2v211.5c0 7.5 6 13.5 13.5 13.5s13.5-6 13.5-13.5V255.2c31.3-6.3 55-34 55-67.2s-23.6-60.8-55-67.1zm-13.5 108.7c-22.9 0-41.5-18.6-41.5-41.5s18.6-41.5 41.5-41.5 41.5 18.6 41.5 41.5-18.6 41.5-41.5 41.5z"/></symbol><symbol viewBox="0 0 512 512" id="shopping-basket" xmlns="http://www.w3.org/2000/svg"><path d="M488.542 174.916H293.737V27.028c0-10.686-8.693-19.378-19.378-19.378h-36.717c-10.686 0-19.378 8.693-19.378 19.378v147.888H23.458C10.524 174.916 0 185.439 0 198.375v50.57c0 12.936 10.524 23.458 23.458 23.458h3.375l26.437 187.89c3.534 25.117 25.327 44.057 50.691 44.057h304.076c25.365 0 47.157-18.941 50.691-44.057l26.438-187.891h3.375c12.936 0 23.458-10.523 23.458-23.458v-50.57c.001-12.935-10.521-23.458-23.457-23.458zM238.661 28.048h34.677v194.805h-34.677V28.048zM438.53 457.451c-2.125 15.108-15.235 26.502-30.492 26.502H103.961c-15.257 0-28.366-11.393-30.492-26.502L47.432 272.402h417.135L438.53 457.451zm53.072-208.507a3.064 3.064 0 0 1-3.06 3.06H23.458a3.064 3.064 0 0 1-3.06-3.06v-50.57a3.064 3.064 0 0 1 3.06-3.06h194.805v28.558c0 10.686 8.693 19.378 19.378 19.378h36.717c10.686 0 19.378-8.693 19.378-19.378v-28.558h194.805a3.064 3.064 0 0 1 3.06 3.06v50.57z"/><path d="M110.151 296.287c-5.633 0-10.199 4.567-10.199 10.199v142.789c0 5.632 4.566 10.199 10.199 10.199s10.199-4.567 10.199-10.199V306.486c.001-5.632-4.566-10.199-10.199-10.199zm58.34 0c-5.633 0-10.199 4.567-10.199 10.199v142.789c0 5.632 4.566 10.199 10.199 10.199s10.199-4.567 10.199-10.199V306.486c0-5.632-4.566-10.199-10.199-10.199zm58.339 0c-5.633 0-10.199 4.567-10.199 10.199v142.789c0 5.632 4.566 10.199 10.199 10.199s10.199-4.567 10.199-10.199V306.486c0-5.632-4.566-10.199-10.199-10.199zm58.34 0c-5.632 0-10.199 4.567-10.199 10.199v142.789c0 5.632 4.566 10.199 10.199 10.199 5.632 0 10.199-4.567 10.199-10.199V306.486c0-5.632-4.567-10.199-10.199-10.199zm58.339 0c-5.632 0-10.199 4.567-10.199 10.199v142.789c0 5.632 4.566 10.199 10.199 10.199 5.632 0 10.199-4.567 10.199-10.199V306.486c0-5.632-4.567-10.199-10.199-10.199zm58.34 0c-5.632 0-10.199 4.567-10.199 10.199v8.164c0 5.632 4.567 10.199 10.199 10.199s10.199-4.567 10.199-10.199v-8.164c0-5.632-4.567-10.199-10.199-10.199zm0 46.917c-5.632 0-10.199 4.567-10.199 10.199v95.871c0 5.632 4.567 10.199 10.199 10.199s10.199-4.567 10.199-10.199v-95.871c0-5.632-4.567-10.199-10.199-10.199z"/></symbol></svg>